<?xml version="1.0" encoding="UTF-8"?>
<svg id="Layer_1" xmlns="http://www.w3.org/2000/svg" version="1.1" viewBox="0 0 1179 805.07">
  <!-- Generator: Adobe Illustrator 29.7.1, SVG Export Plug-In . SVG Version: 2.1.1 Build 8)  -->
  <defs>
    <style>
      .st0 {
        fill: #030302;
      }

      .st1, .st2 {
        fill: #fedc01;
      }

      .st1, .st3 {
        display: none;
      }

      .st2, .st4 {
        stroke: #000;
        stroke-miterlimit: 10;
        stroke-width: 14px;
      }

      .st4 {
        fill: none;
      }

      .st5 {
        fill: #fcfcfc;
      }

      .st6 {
        fill: #fdfdfd;
      }
    </style>
  </defs>
  <circle class="st1" cx="589.5" cy="59.64" r="745.43"/>
  <g class="st3">
    <path class="st0" d="M673.93,117.19c16.02,15.21,30.71,39.66,38.52,60.37,11.9-15.99,17.24-31.62,34.51-44.32,60.63-44.57,176.8-6.69,229.15,38.4,59.18,50.99,89.3,109.52,58.26,187.8-25.76,64.95-80.82,89.69-146.8,98.01-3.66,2.8-4.92,25.51-6.8,33.22-15.34,62.94-71.51,104.81-130.47,59.8-4.3-3.29-15.4-16.56-18.2-17.09-1.78-.33-14.08,5.29-19.11,6.08-46.01,7.21-82-9.64-102.2-51.93-2.89-6.04-5.94-22.32-9.95-25.36-4.03-3.06-32.51-5-36.27-1.69-1.23,1.08-7.42,25.33-10.15,31.05-18.74,39.35-59.38,55.15-101.08,45.16-6.61-1.58-18.25-9.43-24.1-8.03-2.83.68-25.64,24.89-33.86,29.83-53.47,32.12-114.65,1.88-132.61-54.86-6.42-20.28-8.6-65.78-15.44-78.72-4.89-9.24-21.46-17.64-29.27-24.87-79.78-73.83-122.46-151.25-23.54-233.1,48.1-39.8,103.74-27.55,135.37,24.74,33.46-39.18,64.58-87.39,123.71-76.61,16.04,2.93,28.12,14.62,42.95,19.86,40.13-52.58,128.46-64.2,177.39-17.75ZM580.07,117.02c-36.02,4.35-60.25,27.21-75.23,58.95-17.96,38.05-35.3,88.6-50.08,128.83-13.7,37.29-44.7,102.59-29.63,140.05,15.99,39.75,78.05,43.86,99.97,7.98,13.83-22.64,7.13-52.09,40.44-56.07,23.68-2.83,51.07-1.66,62.54,21.68,14.35,29.21,14.68,56.5,57.27,60.41,77.43,7.11,70.3-70.59,56.47-122.37-12.28-45.97-31.88-109.44-48.85-153.6-20.93-54.47-47.51-93.76-112.92-85.86ZM406.39,504.74c-37.73-76.63,3.89-160.43,31.2-233.61,13.12-35.15,28.05-69.7,41.39-104.77,2.24-12.91-23.09-22.94-33.73-24.12-65.6-7.25-65.76,66.99-84.81,108.24-7.09,15.35-12.95,16.91-24.59,3.52-28.93-33.27-44.09-106.91-107.6-76.86-62.25,29.45-12.06,114.03,20.37,147.61,21.1,21.85,55.54,36.53,62.57,66.9,5.23,22.6,4.57,47.41,12.16,70.23,12.41,37.33,45.35,55.63,83.04,42.86ZM794.24,142.86c-46.38,6.28-69,58.66-59.44,100.6,8.31,36.47,25.53,74.19,35.29,110.66,13.25,49.49,17.75,105.46-4.73,152.95,33.45-4.6,47.4-25.08,54.25-56.36,5.24-23.89-.65-47.04,29.25-55.5,57.39-16.23,98.44-12.82,125.28-79.52,47.73-118.6-79-186.51-179.9-172.84Z"/>
    <path class="st5" d="M580.07,117.02c65.41-7.9,91.98,31.39,112.92,85.86,16.97,44.16,36.57,107.63,48.85,153.6,13.83,51.78,20.96,129.47-56.47,122.37-42.59-3.91-42.92-31.21-57.27-60.41-11.47-23.34-38.86-24.52-62.54-21.68-33.31,3.99-26.61,33.43-40.44,56.07-21.92,35.88-83.98,31.77-99.97-7.98-15.07-37.46,15.93-102.76,29.63-140.05,14.77-40.22,32.12-90.78,50.08-128.83,14.98-31.73,39.21-54.6,75.23-58.95ZM582.34,220.5c-22.88,3.58-52.02,24.5-51.36,50.05.77,30.15,33.36,48.72,60.24,50.56,7.26.5,22.58-2.65,25.41-1.94,6.06,1.5,18.74,21.53,30.01,15.1,7.75-7.08-5.49-18.04-4.46-23.36.92-4.79,18.14-14.82,21.56-27.84,12.56-47.92-42.26-68.68-81.39-62.56Z"/>
    <path class="st6" d="M406.39,504.74c-37.7,12.77-70.64-5.53-83.04-42.86-7.59-22.82-6.93-47.63-12.16-70.23-7.03-30.37-41.47-45.05-62.57-66.9-32.43-33.58-82.62-118.15-20.37-147.61,63.51-30.05,78.67,43.58,107.6,76.86,11.64,13.39,17.51,11.83,24.59-3.52,19.05-41.24,19.2-115.49,84.81-108.24,10.64,1.18,35.97,11.21,33.73,24.12-13.33,35.08-28.27,69.63-41.39,104.77-27.31,73.18-68.93,156.98-31.2,233.61Z"/>
    <path class="st5" d="M794.24,142.86c100.9-13.67,227.62,54.24,179.9,172.84-26.84,66.69-67.89,63.29-125.28,79.52-29.9,8.45-24.01,31.61-29.25,55.5-6.86,31.28-20.8,51.76-54.25,56.36,22.48-47.49,17.98-103.46,4.73-152.95-9.76-36.47-26.98-74.19-35.29-110.66-9.56-41.93,13.06-94.31,59.44-100.6ZM806.09,302.78c5.73,9.59-15.95,25.67-.61,27.9,11.86,1.73,18.36-10.4,25.88-11.85,8.72-1.69,17.17,2.59,25.82,2.52,48.17-.38,91.07-49.02,45.71-85.91-49.47-40.25-151.03-.79-104.43,62.1,2.34,3.16,7.11,4.37,7.63,5.24Z"/>
    <path class="st0" d="M582.34,220.5c39.14-6.12,93.95,14.64,81.39,62.56-3.41,13.03-20.64,23.05-21.56,27.84-1.02,5.32,12.21,16.28,4.46,23.36-11.27,6.43-23.95-13.59-30.01-15.1-2.83-.7-18.14,2.44-25.41,1.94-26.88-1.84-59.47-20.41-60.24-50.56-.66-25.55,28.48-46.47,51.36-50.05Z"/>
    <path class="st0" d="M806.09,302.78c-.52-.87-5.29-2.08-7.63-5.24-46.6-62.89,54.95-102.35,104.43-62.1,45.36,36.9,2.46,85.53-45.71,85.91-8.64.07-17.1-4.21-25.82-2.52-7.52,1.45-14.02,13.58-25.88,11.85-15.34-2.23,6.34-18.31.61-27.9Z"/>
  </g>
  <g>
    <circle class="st2" cx="589.5" cy="402.53" r="137.15"/>
    <path class="st4" d="M678.69,393.77c0,48.11-39,87.12-87.12,87.12-48.11,0-87.12-39-87.12-87.12"/>
    <circle cx="553.67" cy="357.19" r="14.12"/>
    <circle cx="625.33" cy="357.19" r="14.12"/>
  </g>
</svg>